<svg width="14" height="14" viewBox="0 0 14 14" xmlns="http://www.w3.org/2000/svg">
    <defs>
        <path id="dr87kqg34a" d="M.002.018h8.35v8.357H.002z"/>
    </defs>
    <g fill="none" fill-rule="evenodd">
        <path d="M6.5 2.416c.335 0 .56.157.64.444a.59.59 0 0 1-.47.736 1.538 1.538 0 0 1-.23.015H1.205v8.345h8.342V6.682c0-.328.134-.55.387-.645a.595.595 0 0 1 .8.482c.01.063.009.128.009.192 0 1.897-.005 3.794.004 5.691.001.375-.121.637-.49.756H.491c-.37-.117-.492-.379-.491-.754.007-3.093.004-6.187.004-9.28 0-.48.228-.708.704-.708h5.793zm5.875-2.39c.375-.003.637.12.754.49v5.001c-.045.086-.08.18-.137.256a.58.58 0 0 1-.633.197.584.584 0 0 1-.413-.503 1.941 1.941 0 0 1-.01-.205V2.074l-.092.087-.035.034C9.827 4.176 7.845 6.158 5.865 8.14c-.177.177-.371.285-.63.224a.593.593 0 0 1-.328-.944c.043-.053.092-.102.14-.15l5.908-5.91c.035-.035.082-.06.123-.089a28.136 28.136 0 0 0-.023-.048h-.144c-1.016 0-2.033.002-3.05-.003a.956.956 0 0 1-.348-.059.573.573 0 0 1-.337-.639.591.591 0 0 1 .535-.49C7.76.03 7.813.03 7.864.03c1.504 0 3.008.005 4.511-.004z" fill="#F13CF2"/>
    </g>
</svg>
